<svg id="Capa_1" enable-background="new 0 0 512 512" height="512" viewBox="0 0 512 512" width="512" xmlns="http://www.w3.org/2000/svg"><g><g><path d="m7.829 339.035 165.666 165.667h165.667l165.667-165.667v-165.667l-165.667-165.667h-165.667l-165.666 165.667z" fill="#dbedff"/><path d="m90.662 90.534-82.834 82.834.001 165.666 82.834 82.835z" fill="#b5dcff"/><g fill="#407093"><path d="m173.495 173.368h165.667v165.667h-165.667z"/><path d="m339.162 504.701h157.484c4.519 0 8.183-3.664 8.183-8.183v-157.483h-165.667z"/><path d="m7.829 15.884v157.484h165.667v-165.667h-157.484c-4.52 0-8.183 3.664-8.183 8.183z"/></g><path d="m98.845 7.701h-82.833c-4.519 0-8.183 3.664-8.183 8.183v157.484h82.833v-157.484c0-4.519 3.664-8.183 8.183-8.183z" fill="#365e7d"/><path d="m496.646 7.701h-157.484v165.667h165.667v-157.484c0-4.519-3.664-8.183-8.183-8.183z" fill="#407093"/><path d="m7.829 339.034v157.484c0 4.519 3.664 8.183 8.183 8.183h38.457l4.101-3.725h64l4.285 3.725h46.641v-165.667z" fill="#407093"/><path d="m58.57 500.977h33.418c-.836-1.283-1.326-2.812-1.326-4.458v-157.485h-82.833v157.484c0 4.519 3.664 8.183 8.183 8.183h38.457z" fill="#365e7d"/><path d="m101.056 415.059c-1.754 0-3.326 0-4.803 0-17.733 4.627-27.387 25.49-17.336 42.386 3.629 6.101 6.555 12.604 8.227 19.345l2.513 2.437h20.996l6.418-3.298c1.624-6.545 4.465-12.86 7.989-18.783 11.044-18.565-2.403-42.087-24.004-42.087z" fill="#fee6c1"/><path d="m79.597 457.145c-10.824-18.195 1.884-41.138 22.731-42.044-.423-.018-.844-.043-1.273-.043-8.224 0-12.576 0-20.788 0-21.601 0-35.048 23.523-24.004 42.087 3.524 5.923 6.365 12.238 7.989 18.783l3.401 3.298h23.333l-3.401-3.298c-1.623-6.544-4.464-12.859-7.988-18.783z" fill="#fcd79b"/><path d="m126.855 475.928h-40.629c-4.633 1.555-8 5.939-8 11.079v6.614c0 5.14 3.366 9.524 7.999 11.08h40.629c6.168 0 11.214-5.047 11.214-11.214v-6.345c.001-6.167-5.045-11.214-11.213-11.214z" fill="#fcd79b"/><path d="m78.702 493.487v-6.345c0-6.167 5.046-11.214 11.214-11.214h-35.447c-6.168 0-11.214 5.046-11.214 11.214v6.345c0 6.167 5.046 11.214 11.214 11.214h35.447c-6.168 0-11.214-5.046-11.214-11.214z" fill="#fbc56c"/><g><path d="m266.722 83.725c-1.754 0-3.326 0-4.803 0-17.733 4.627-27.387 25.49-17.336 42.386 3.629 6.101 6.555 12.604 8.227 19.345l2.513 2.437h20.996l6.418-3.298c1.624-6.545 4.465-12.86 7.989-18.783 11.045-18.564-2.402-42.087-24.004-42.087z" fill="#407093"/><path d="m245.264 125.812c-10.824-18.195 1.884-41.138 22.731-42.044-.423-.018-.844-.043-1.273-.043-8.224 0-12.576 0-20.788 0-21.601 0-35.048 23.523-24.004 42.087 3.524 5.923 6.365 12.238 7.989 18.783l3.401 3.298h23.333l-3.401-3.298c-1.623-6.545-4.464-12.86-7.988-18.783z" fill="#365e7d"/><path d="m292.522 144.595h-40.629c-4.633 1.555-8 5.939-8 11.079v6.614c0 5.14 3.366 9.524 7.999 11.08h40.629c6.168 0 11.214-5.047 11.214-11.214v-6.345c.001-6.168-5.046-11.214-11.213-11.214z" fill="#365e7d"/><path d="m244.369 162.154v-6.345c0-6.167 5.046-11.214 11.214-11.214h-35.447c-6.168 0-11.214 5.046-11.214 11.214v6.345c0 6.167 5.046 11.214 11.214 11.214h35.447c-6.168 0-11.214-5.047-11.214-11.214z" fill="#2b4d66"/></g></g><path d="m496.317 0c-15.884 0-464.748 0-480.633 0-8.649 0-15.684 7.035-15.684 15.683v157.484 323.15c0 8.648 7.035 15.683 15.684 15.683h222.816c4.143 0 7.5-3.357 7.5-7.5s-3.357-7.5-7.5-7.5h-57.833v-150.667h150.667v150.667h-57.834c-4.143 0-7.5 3.357-7.5 7.5s3.357 7.5 7.5 7.5h222.817c8.647 0 15.683-7.035 15.683-15.683 0-17.227 0-215.322 0-222.817 0-4.143-3.357-7.5-7.5-7.5s-7.5 3.357-7.5 7.5v57.833h-150.666v-150.666h150.666v57.833c0 4.143 3.357 7.5 7.5 7.5s7.5-3.357 7.5-7.5v-65.333-.001-157.483c0-8.648-7.035-15.683-15.683-15.683zm.683 15.683v149.983h-150.666v-150.666h149.983c.376 0 .683.307.683.683zm-165.666 149.984h-20.8c.243-1.201.373-2.442.373-3.714v-6.346c0-10.065-7.992-18.276-17.961-18.676 1.106-2.468 2.399-4.966 3.897-7.485 14.025-23.576-3.012-53.422-30.45-53.422h-2.893v-12.178h10.196c4.143 0 7.5-3.357 7.5-7.5s-3.357-7.5-7.5-7.5h-10.196v-11.732c0-4.143-3.357-7.5-7.5-7.5s-7.5 3.357-7.5 7.5v11.731h-10.196c-4.143 0-7.5 3.357-7.5 7.5s3.357 7.5 7.5 7.5h10.196v12.179h-2.894c-27.437 0-44.475 29.845-30.449 53.422 1.499 2.519 2.792 5.017 3.897 7.485-9.969.4-17.96 8.611-17.96 18.676v6.346c0 1.271.13 2.513.373 3.714h-20.8v-150.667h150.667zm-115.24-3.714v-6.346c0-2.013 1.701-3.714 3.714-3.714h72.386c2.013 0 3.714 1.701 3.714 3.714v6.346c0 2.013-1.701 3.714-3.714 3.714h-72.386c-2.013 0-3.714-1.701-3.714-3.714zm11.954-40.177c-8.064-13.556 1.745-30.752 17.559-30.752h20.787c15.826 0 25.619 17.206 17.56 30.752-3.013 5.062-5.398 10.126-7.128 15.117h-41.65c-1.73-4.99-4.116-10.054-7.128-15.117zm-213.048 58.891h150.667v150.666h-150.667zm0-164.984c0-.376.307-.683.684-.683h149.983v150.667h-150.667zm0 480.634v-149.984h150.667v150.667h-20.8c.243-1.201.373-2.442.373-3.714v-6.345c0-10.065-7.992-18.276-17.96-18.676 1.105-2.468 2.398-4.966 3.897-7.486 14.025-23.575-3.01-53.422-30.449-53.422h-2.895v-12.179h10.196c4.143 0 7.5-3.357 7.5-7.5s-3.357-7.5-7.5-7.5h-10.196v-11.731c0-4.143-3.357-7.5-7.5-7.5s-7.5 3.357-7.5 7.5v11.731h-10.196c-4.143 0-7.5 3.357-7.5 7.5s3.357 7.5 7.5 7.5h10.196v12.179h-2.894c-27.435 0-44.476 29.845-30.449 53.421 1.499 2.52 2.792 5.019 3.897 7.487-9.969.4-17.961 8.611-17.961 18.676v6.345c0 1.271.13 2.513.373 3.714h-20.115c-.377 0-.684-.307-.684-.683zm47.381-43.208c-8.064-13.556 1.745-30.752 17.559-30.752h20.788c15.823 0 25.618 17.202 17.559 30.753-3.013 5.063-5.399 10.127-7.128 15.117h-41.65c-1.73-4.991-4.116-10.054-7.128-15.118zm-8.24 43.891c-2.013 0-3.714-1.701-3.714-3.714v-6.345c0-2.013 1.701-3.714 3.714-3.714h72.386c2.013 0 3.714 1.701 3.714 3.714v6.345c0 2.013-1.701 3.714-3.714 3.714zm126.526-165.667v-150.666h150.667v150.666zm316.333 15v149.984c0 .376-.307.683-.683.683h-149.983v-150.667z"/></g></svg>