<svg xmlns="http://www.w3.org/2000/svg" xmlns:xlink="http://www.w3.org/1999/xlink" viewBox="0 0 393.011 73.7"><defs><style>.cls-1{fill:url(#Orange_Yellow);}.cls-2{fill:url(#Orange_Yellow-2);}.cls-3{fill:url(#Orange_Yellow-3);}.cls-4{fill:url(#Orange_Yellow-4);}.cls-5{fill:url(#Orange_Yellow-5);}.cls-6{fill:url(#Orange_Yellow-6);}.cls-7{fill:url(#Orange_Yellow-7);}.cls-8{fill:url(#Orange_Yellow-8);}.cls-9{fill:url(#Orange_Yellow-9);}</style><linearGradient id="Orange_Yellow" x1="-3.754" y1="5.645" x2="45.272" y2="54.671" gradientUnits="userSpaceOnUse"><stop offset="0" stop-color="#fff33b"/><stop offset="0.04" stop-color="#fee72e"/><stop offset="0.117" stop-color="#fed51b"/><stop offset="0.196" stop-color="#fdca10"/><stop offset="0.281" stop-color="#fdc70c"/><stop offset="0.669" stop-color="#f3903f"/><stop offset="0.888" stop-color="#ed683c"/><stop offset="1" stop-color="#e93e3a"/></linearGradient><linearGradient id="Orange_Yellow-2" x1="34.253" y1="16.66" x2="75.495" y2="57.903" xlink:href="#Orange_Yellow"/><linearGradient id="Orange_Yellow-3" x1="64.762" y1="13.973" x2="110.528" y2="59.738" xlink:href="#Orange_Yellow"/><linearGradient id="Orange_Yellow-4" x1="110.243" y1="5.645" x2="159.269" y2="54.671" xlink:href="#Orange_Yellow"/><linearGradient id="Orange_Yellow-5" x1="160.058" y1="20.629" x2="210.299" y2="70.87" xlink:href="#Orange_Yellow"/><linearGradient id="Orange_Yellow-6" x1="211.459" y1="13.973" x2="257.224" y2="59.738" xlink:href="#Orange_Yellow"/><linearGradient id="Orange_Yellow-7" x1="256.939" y1="5.644" x2="305.965" y2="54.671" xlink:href="#Orange_Yellow"/><linearGradient id="Orange_Yellow-8" x1="305.952" y1="13.709" x2="351.898" y2="59.655" xlink:href="#Orange_Yellow"/><linearGradient id="Orange_Yellow-9" x1="347.519" y1="10.434" x2="400.473" y2="63.388" xlink:href="#Orange_Yellow"/></defs><title>Asset 1</title><g id="Layer_2" data-name="Layer 2"><g id="Layer_1-2" data-name="Layer 1"><path class="cls-1" d="M40.834,12.431c-1.3,1.4-12.7-.1-12.7.6v49.3c0,1.8,1.1,7.6,0,9.1,0,2.6-11.6,2.5-13,1.7-2.5,0-1.6-5.1-1.6-6.4v-52.8c0-2.2-7.9-1-9.8-1-5.3,0-3.4-6.5-3.4-10.5,0-3.4,6.2-2.1,8.4-2.1h31C42.334.33,42.334,11.031,40.834,12.431Z"/><path class="cls-2" d="M47.53,28.632V4.83c0-4.8,9.4-6,12.9-3.7,3.4,0,1.6,40.7,1.6,44.6v23.8c0,6.1-8.3,3.7-12.9,3.7C45.63,73.235,47.53,32.532,47.53,28.632Z"/><path class="cls-3" d="M74.83,69.634c-9.3-6.6-6.7-21-6.7-30.9,0-8.9-2.5-23.4,3.2-31.1,6.2-8.2,19.3-9.7,27.9-4.6,4.1,2.4,12.6,13.7,8.6,19,0,3.1-10.6,1.7-12.4,1.7-3.4,0-1.7-6.8-3.6-8.9-10.4-11.7-9.2,18.6-9.2,21.3,0,5.3-3.2,24.1,5.2,24.1,7.4,0,3.5-10.3,7.1-10.3,1-.7,10.2-.7,11.3,0,6,0-2.5,16.7-4.1,18.2-7.2,6.4-19.4,7.1-27.3,1.5C72.93,68.234,76.83,71.034,74.83,69.634Z"/><path class="cls-4" d="M154.831,12.431c-1.3,1.4-12.7-.1-12.7.6v49.3c0,1.8,1.1,7.6,0,9.1,0,2.6-11.6,2.5-13,1.7-2.5,0-1.6-5.1-1.6-6.4v-52.8c0-2.2-7.9-1-9.8-1-5.3,0-3.4-6.5-3.4-10.5,0-3.4,6.2-2.1,8.4-2.1h31C156.331.33,156.331,11.031,154.831,12.431Z"/><path class="cls-5" d="M207.53,64.834c.4,1.4,2.5,6,1.3,7.5-1.3,1.6-13.7,1.6-14.2-.6-2.6-2.5-.2-11.6-3-13.6-1.1-.7-11.8-.7-12.8,0-2.9,2-.5,11.1-3.1,13.6-.5,2.2-12.9,2.2-14.2.6-2.6-3.4,4.7-20.9,5.6-24.5l9.9-38.4c.3-1.5.7-6.3,1.9-7.5.5-2.2,12-2.2,12.5,0C196.829,22.931,202.23,43.833,207.53,64.834Zm-22.4-35.6c-1.2,5.5-2.4,10.9-3.6,16.4h7.2Z"/><path class="cls-6" d="M221.526,69.634c-9.3-6.6-6.7-21-6.7-30.9,0-8.9-2.5-23.4,3.2-31.1,6.2-8.2,19.3-9.7,27.9-4.6,4.1,2.4,12.6,13.7,8.6,19,0,3.1-10.6,1.7-12.4,1.7-3.4,0-1.7-6.8-3.6-8.9-10.4-11.7-9.2,18.6-9.2,21.3,0,5.3-3.2,24.1,5.2,24.1,7.4,0,3.5-10.3,7.1-10.3,1-.7,10.2-.7,11.3,0,6,0-2.5,16.7-4.1,18.2-7.2,6.4-19.4,7.1-27.3,1.5C219.626,68.234,223.527,71.034,221.526,69.634Z"/><path class="cls-7" d="M301.528,12.431c-1.3,1.4-12.7-.1-12.7.6v49.3c0,1.8,1.1,7.6,0,9.1,0,2.6-11.6,2.5-13,1.7-2.5,0-1.6-5.1-1.6-6.4v-52.8c0-2.2-7.9-1-9.8-1-5.3,0-3.4-6.5-3.4-10.5,0-3.4,6.2-2.1,8.4-2.1h31C303.028.33,303.028,11.031,301.528,12.431Z"/><path class="cls-8" d="M342.726,4.73c10.7,8.2,6.7,29.6,6.7,41.3,0,5.4.8,11.9-1.9,16.9-6,11.3-22.7,13.2-32.4,5.7-10.7-8.2-6.7-29.6-6.7-41.3,0-5.5-.7-11.8,1.9-16.8,5.9-11.5,22.7-13.3,32.4-5.8C344.726,6.23,340.826,3.23,342.726,4.73Zm-19.8,14v10.5c0,7.6-2,18.2,0,25.5,0,7.2,12,7.1,12-.1v-36.1C334.925,11.331,322.925,11.531,322.925,18.731Z"/><path class="cls-9" d="M355.823,61.834v-48.3c0-2.3-1.4-9.9.4-11.8,2.3-2.3,12.8-.5,15.7-.5,4,0,15.3-2.1,18.7,0,2.7,0,3,12.4-.2,12.4h-20c-.5,0-.3,14.7-.3,16.4,0,.7,15.4.4,17.4.4,3.3,0,3,12.4.3,12.4-3.7,2.4-14.5-3-17.7,0-.7.7-.7,16.1,0,16.7,2.5,2.2,16,0,19.5,0,3.8,0,4.2,10.5,2.2,12.5-2.6,2.6-14.6.5-17.8.5h-16.6C354.523,72.534,355.823,63.334,355.823,61.834Z"/></g></g></svg>