<svg xmlns="http://www.w3.org/2000/svg" viewBox="0 0 2349.27 1690.862"><defs><style>.cls-1{fill:#ebf3fa;}.cls-2{opacity:0.8;}.cls-3{fill:#d7e5ff;}.cls-4{fill:#aec3ff;}.cls-5{fill:#a8d29f;}.cls-6{fill:#ffb27d;}.cls-7{fill:#739af0;}.cls-8{fill:#1c3154;}.cls-9{fill:#2a4e96;}.cls-10{fill:#233862;}.cls-11{fill:#6385db;}.cls-12{fill:#ed985f;}.cls-13{fill:#2c3a64;}.cls-14{fill:#f99746;}.cls-15{fill:#ed7d2b;}.cls-16{fill:#7599ea;}.cls-17{fill:#90aff4;}.cls-18,.cls-19{fill:#5888dd;}.cls-19{opacity:0.4;}.cls-20{fill:#607cf4;}.cls-21{fill:#e9f3fe;}.cls-22{fill:#f77d48;}.cls-23{fill:#e6efff;}.cls-24{fill:#113c68;}.cls-25{fill:#15447c;}.cls-26{fill:#fca56b;}.cls-27{fill:#163560;}.cls-28{fill:#1f4d84;}.cls-29{opacity:0.5;}.cls-30{fill:#b3cff9;}.cls-31{fill:#ed975d;}.cls-32{fill:#fff;}.cls-33{fill:#1f447f;}.cls-34{fill:#b5453c;}.cls-35{fill:#e8945b;}</style></defs><title>Asset 2</title><g id="Layer_2" data-name="Layer 2"><g id="_лой_1" data-name="‘лой_1"><path class="cls-1" d="M2247.9,1687.126c-148.189,0-2151.664-4.324-2151.664-4.565-.826-1.943-254.334-312.649,64.883-637.5,158.169-160.96-145.248-369.49,0-548.535C409.929,189.829,656.11,362.554,861.2,276.3c36.236-15.226,72.6-39.733,109-77.341a405.34,405.34,0,0,1,66.984-55.61q5.527-3.687,11.17-7.19a446.24,446.24,0,0,1,44.691-24.256q15.489-7.3,31.563-13.511h.01a516.914,516.914,0,0,1,52.31-17.032,591.936,591.936,0,0,1,78.02-15.3q17.4-2.264,35.085-3.578c229.155-17.226,487.043,79.672,620.127,221.3,26.794,28.52,148.633,176.084,52.591,378.91-60.64,128.059,193.4,250.364,283.666,396.6C2475.918,1431.069,2249.987,1682.279,2247.9,1687.126Z"/><g class="cls-2"><path class="cls-3" d="M1729.4,822.715a293.331,293.331,0,0,1-22.351,47.7,291.4,291.4,0,0,1-350.931,126.543c-111.748-40.622-183.526-142.5-191.171-253.955a286.386,286.386,0,0,1,.368-44.439,293.383,293.383,0,0,1,43.933-130.891c.12-.2.249-.389.37-.592a292.081,292.081,0,0,1,166.061-124.019c7.111-2.038,14.325-3.806,21.591-5.293a289.736,289.736,0,0,1,157.887,11.646q10.447,3.8,20.406,8.3A289.313,289.313,0,0,1,1693.634,555.2l.015,0a292.39,292.39,0,0,1,46.59,105.712q2.677,12.22,4.322,24.685A289.965,289.965,0,0,1,1729.4,822.715Z"/><path class="cls-4" d="M1407.169,566.836c-17.214,13.331-12.649,49-42.445,28.9s-48.5-31.036-56.938-13.493c-8.453,17.552,17.959,27.153,11.009,46.272s-21.089,21.137-35.991,5.438-15.346-30.81-39.491-30.311-34.45-9.431-33.274-27.556a25.5,25.5,0,0,0-.793-8.4c.12-.2.249-.389.37-.592a292.081,292.081,0,0,1,166.061-124.019c7.111-2.038,14.325-3.806,21.591-5.293,8.421,3.417,17.445,10.362,22.232,24.285,10.511,30.629,27.556,23.421,13.08,49.08s-8.522,31.952,7.283,36.661,34.022,11.332,31.535,23.832S1424.384,553.505,1407.169,566.836Z"/><path class="cls-4" d="M1729.4,822.715a293.331,293.331,0,0,1-22.351,47.7,289.682,289.682,0,0,1-81.387,89.322,33.248,33.248,0,0,1-21.677-8.545c-29.177-26.066,9.49-53.754,29.848-67.226s-17.444-17.936-36.5-44.19,25.566-61.826-3.111-63.747-63.56-3.779-69.4-34.5,24.329-24.4,19.05-50.279,19.672-30.727,46.364-23.344,29.979-12.293,63.063-3.358,17.51,49.654,54.009,59.83,31.923,17.788,31.923,17.788a17.618,17.618,0,0,1,6.849,4.253A291.856,291.856,0,0,1,1729.4,822.715Z"/><path class="cls-4" d="M1744.561,685.6c-34.746,3.634-32.4-39.746-61.9-37.175-29.746,2.591-17.018-18.555-31.742-40.4-14.741-21.84-64.39-10-54.3-32.107s37.816-4.806,50.811-20.691,40.47-.749,40.47-.749a20.97,20.97,0,0,1,5.735.724s0-.014.015,0a292.39,292.39,0,0,1,46.59,105.712Q1742.916,673.137,1744.561,685.6Z"/><path class="cls-4" d="M1524.357,516.669s23.6-16.7,1.408-32.227-24.866-6.735-43.244-15.721-31.268,3.079-22.8,24.451,8.8,56.6,27.781,44.789S1508.529,512.719,1524.357,516.669Z"/></g><path class="cls-5" d="M162.41,1683.394h101.6c5.445-4.618-3.767-15.105-13.392-15.81-4.181-.317-9.467.558-15.507,1.835-1.4-18.57-9.382-102.046-39.472-98.693-33.833,3.756,0,36.762,9.564,56.3,7.086,14.474,14.559,35.231,17.974,45.026-2.746.6-5.59,1.179-8.5,1.713-4.484-13.768-21.17-60.083-42.389-57.384-24.913,3.159-14.9,21.728,2.759,32.751,12.955,8.106,28.863,19.626,36.422,25.192a107.973,107.973,0,0,1-19.87,1.593C174.2,1675.508,165.7,1680.636,162.41,1683.394Z"/><path class="cls-5" d="M1779.31,1683.394h-94.368c-5.057-4.289,3.5-14.031,12.44-14.685,3.883-.294,8.793.519,14.4,1.7,1.3-17.248,8.713-94.785,36.663-91.67,31.425,3.488,0,34.146-8.884,52.3-6.581,13.443-13.524,32.723-16.7,41.822,2.551.553,5.193,1.1,7.89,1.591,4.166-12.789,19.664-55.808,39.373-53.3,23.141,2.936,13.839,20.184-2.562,30.421-12.034,7.529-26.809,18.231-33.83,23.4a100.22,100.22,0,0,0,18.455,1.479C1768.361,1676.068,1776.25,1680.832,1779.31,1683.394Z"/><path class="cls-6" d="M1846.7,1064.813s2.248-22.339-9.435-21.573-14.775,6.123-13.47,10.416,12.666,18.5,12.666,18.5Z"/><path class="cls-7" d="M2028.731,1109.576s-12.932,15.195-40.743,32.731c-2.634,1.665-5.388,3.342-8.3,5.029a308.191,308.191,0,0,1-38.1,18.745c-1.61.664-3.5,1.393-5.627,2.155-16.665,6.02-47.329,14.553-66.334,15.316-1.654.065-3.222.065-4.68.01-28.923-1.165-32.45-113.424-32.45-113.424s3.222-11.233,18.08-8.4c0,0,22.566,63.4,30.654,68.566,7.183,4.593,48.471-57.993,84.01-62.372C1989.172,1064.982,2028.731,1109.576,2028.731,1109.576Z"/><path class="cls-8" d="M1951.029,1657s2.135,24.712-3.088,27.283l-66.851-.137s0-7.715,10.738-9.429,29.6-8,32.793-22S1951.029,1657,1951.029,1657Z"/><path class="cls-9" d="M1901.951,1357.913c.33,16.159,1.105,32.826,2.626,47.806,7.219,71.079,9.757,156.959,10.8,173.516,1.8,28.742,7.477,74.66,7.477,74.66s11.262,10.691,33.214,5.589c0,0,18.187-66.135,22.252-135.772q.093-1.715.183-3.44c.471-9.206.964-19.734,1.468-31.085,3.345-76.034,6.978-188.984,6.978-188.984l-83.888-19.7S1901.127,1317.631,1901.951,1357.913Z"/><path class="cls-10" d="M1901.951,1357.913c21.259,36.68,61.783,104.257,78.015,131.274,3.345-76.034,6.978-188.984,6.978-188.984l-83.888-19.7S1901.127,1317.631,1901.951,1357.913Z"/><path class="cls-11" d="M1935.967,1168.236c-16.665,6.02-47.329,14.553-66.334,15.316,2.906-.544,24.067-4.736,31.893-14.184,8.4-10.156,22.554-37.739,33.81-26.483C1940.637,1148.185,1939.08,1158.657,1935.967,1168.236Z"/><path class="cls-6" d="M2076.925,1345.964s5.206,20.419,4.353,24.956-5.937,19.9-9.107,23.717-3.3-16.573-5.406-19.775-.966,7.611-2.655,8.5-4.506-8.19-5.761-11.408,4.5-14.417,5.036-22.446S2076.925,1345.964,2076.925,1345.964Z"/><path class="cls-8" d="M2117.559,1628.912s11.9,10.858,9.576,18.573-13.058,12.859-14.51,22.288-7.254,14.573-12.478,14.573h-24.9s-3.846-6.635,5.44-8.635,12.788-13.081,12.208-23.367.87-24,.87-24l19.734-4.573Z"/><path class="cls-9" d="M1916.276,1301.925s78.528,168.019,120.316,241.742,54.849,94.3,54.849,94.3,23.941-9.43,26.118-15.86c0,0-15.98-142.325-43.966-177.02-15.813-19.605-34.389-78.438-35.259-99.011s-19.216-69.68-19.216-69.68Z"/><path class="cls-7" d="M1901.643,1293.181s25.57,27.52,69.022,35.831c19.07,3.651,57.777,7.177,67.377-6.4,2.255-3.187,2.275-7.907,1.775-15.276-1.293-19.152-6.111-56.178,15.639-130.587a126.917,126.917,0,0,0,4.182-19.889c4.748-38.065,4.233-66.8-28.794-82.154-49.485-23-69.8-4.076-69.8-4.076s-26.319,12.3-38.345,48.14C1898.653,1190.464,1901.643,1293.181,1901.643,1293.181Z"/><path class="cls-6" d="M2001.135,1068.386a36.73,36.73,0,0,1-36.965,2.42c-1.075-.537-.94-7.93-.672-15.189.268-7.125.941-14.115.941-14.115l17.608-11.558,16.8-11.023C1996.834,1056.828,2004.9,1065.7,2001.135,1068.386Z"/><path class="cls-12" d="M1995.893,1034.57s-11.426,17.149-32.395,21.047c.268-7.125,1.03-14.973,1.03-14.973l17.519-10.7Z"/><path class="cls-6" d="M1948.669,1037.047s42.6,15.9,52.079-10.35,21.361-41.872-5.438-53.133-35.729-3.135-41.059,4.854S1937.832,1032.234,1948.669,1037.047Z"/><path class="cls-13" d="M2027.286,976.514c.49-.378,1.484-.566,3.558-.273a8.48,8.48,0,0,0-3.619-1.837c.135-2.936-.386-8.285-5.053-10.482a6.271,6.271,0,0,1,2.107,5.028c-4.533-6.963-15.877-13.62-50.141-17.622-45.157-5.274-36.127,26.09-31.041,30.62s21.413-1.911,31.97,1.06,9.536,18.87,12.754,21.714,2.53-1.2,7.892-2.45,4.219,7,1.75,12.02,2.912,13.355,2.912,13.355l8.289-6.011c8.29-6.011,20.891-35.918,19.1-43.179C2027.6,977.816,2027.448,977.168,2027.286,976.514Z"/><path class="cls-11" d="M2039.817,1307.336c-1.293-19.152-6.111-56.178,15.639-130.587a126.917,126.917,0,0,0,4.182-19.889h-.005c-16.159-5.329-45.6,6.525-45.6,6.525S2007.109,1261.742,2039.817,1307.336Z"/><path class="cls-7" d="M2039.754,1079.681s19.884,7.232,32.567,59.877c8.38,34.785,23.807,85.912,25.547,101.978s-17.637,110.13-17.637,110.13-2.734,1.992-9.429.653a15.564,15.564,0,0,1-9.39-5.616s-4.633-62.693-3.437-92.3c.5-12.3-56.934-90.07-87.93-100.089C1957.872,1150.385,2039.754,1079.681,2039.754,1079.681Z"/><path class="cls-4" d="M1761.626,1011.532s57.473-1.634,123.794,10.575l6.929-17.46,7.6-19.13s-66.581-28.664-106.6-68.58Z"/><path class="cls-14" d="M1794.253,916.011l-33,97.4h0a8.779,8.779,0,0,1-5.781-11.354l29.04-81.84a7.243,7.243,0,0,1,9.737-4.209Z"/><path class="cls-14" d="M1825.752,1084.029h0a11.931,11.931,0,0,0,14-9.334l11.362-56.846a11.931,11.931,0,0,0-9.334-14h0a11.93,11.93,0,0,0-14,9.334l-11.362,56.846A11.931,11.931,0,0,0,1825.752,1084.029Z"/><path class="cls-7" d="M1761.626,1011.532s57.473-1.634,123.794,10.575l6.929-17.46C1830.033,991.922,1761.626,1011.532,1761.626,1011.532Z"/><path class="cls-14" d="M1867.084,1018.6l17.957,3.16c-.274.01,16.681,3.3,22.24-11.729a12.169,12.169,0,0,0,1.065-3.243c4.319-18.732-5.965-22.183-5.965-22.183L1879.27,975.6l-7.344,25.987,0,.091Z"/><path class="cls-15" d="M1867.084,1018.6l17.957,3.16c-.274.01,16.681,3.3,22.24-11.729-10.16-7.39-35.355-8.445-35.355-8.445l0,.091Z"/><path class="cls-6" d="M1827.285,1028.982s8.785,3.5,7.174,7.369-12.782,9.189-14.545,6.136S1821.758,1025.719,1827.285,1028.982Z"/><path class="cls-6" d="M1846.872,1061.294a123.205,123.205,0,0,0,1.762-13.116c.1-4.129.589-7.5-.384-7.619s-1.676.644-2.074,1.972-1.918,9.562-1.918,9.562l.768,7.946Z"/><path class="cls-16" d="M977.948,1055.428l-49.773,591.8s-5.215,35.874,21.47,35.938c43.874.1,218.376,0,218.376,0S1135,1675.7,1135.4,1658.9c.471-19.8,58.174-609.071,58.174-609.071Z"/><path class="cls-17" d="M1184.449,1672.668c-8.629.025-177.57.311-220.3-.238-18.621-.231-21.886-16.555-22.04-27.121a52.89,52.89,0,0,1,.566-8.809l1.294-15.382,3.3-39.2,2.913-34.637,3.745-44.508,3.153-37.567,35.366-420.518,215.627-5.6s-24.3,246.605-41.493,426.113c-1.919,20-3.744,39.178-5.432,57.079q-.823,8.574-1.586,16.744c-1.594,16.985-3.05,32.58-4.319,46.351-.668,7.259-1.285,14-1.842,20.18-2.194,24.208-3.479,39.667-3.5,42.607a24.809,24.809,0,0,0,.42,4.79C1153.867,1671.814,1181.209,1672.668,1184.449,1672.668Z"/><polygon class="cls-4" points="454.288 733.39 575.524 1220.371 592.123 1287.065 648.589 1513.887 1697.636 1513.887 1489.512 733.39 454.288 733.39"/><polygon class="cls-17" points="454.286 733.389 437.484 738.99 626.252 1530.829 648.591 1513.889 454.286 733.389"/><polygon class="cls-16" points="626.252 1530.829 1668.842 1530.829 1697.632 1513.889 648.591 1513.889 626.252 1530.829"/><rect class="cls-4" x="992.379" y="1672.668" width="225.736" height="10.727" transform="translate(2210.493 3356.062) rotate(180)"/><polygon class="cls-18" points="1160.731 1530.824 1159.565 1539.025 947.272 1581.914 950.185 1547.277 951.574 1530.824 1160.731 1530.824"/><path class="cls-19" d="M1184.449,1672.668c-8.629.025-177.57.311-220.3-.238-18.621-.231-21.886-16.555-22.04-27.121l211.291-39.753c-2.194,24.208-3.479,39.667-3.5,42.607a24.809,24.809,0,0,0,.42,4.79C1153.867,1671.814,1181.209,1672.668,1184.449,1672.668Z"/><polygon class="cls-4" points="454.286 733.389 1489.511 733.389 1657.478 1360.663 610.446 1360.663 454.286 733.389"/><polygon class="cls-7" points="1608.651 1333.48 639.364 1333.48 604.728 1195.499 591.328 1142.108 585.864 1120.336 550.265 978.536 548.419 971.154 529.601 896.2 521.183 862.664 514.001 834.055 497.165 766.992 1452.479 766.992 1470.969 834.055 1478.851 862.664 1488.096 896.2 1549.005 1117.144 1549.005 1117.154 1554.169 1135.872 1556.569 1144.562 1598.623 1297.098 1608.651 1333.48"/><polygon class="cls-20" points="1470.97 834.059 514.003 834.059 497.169 766.99 1452.483 766.99 1470.97 834.059"/><path class="cls-21" d="M536.689,797.3c-1.154-4.63,1.663-8.384,6.294-8.384a11.451,11.451,0,0,1,10.474,8.384c1.155,4.63-1.663,8.384-6.293,8.384A11.455,11.455,0,0,1,536.689,797.3Z"/><path class="cls-21" d="M564.547,797.3c-1.155-4.63,1.663-8.384,6.294-8.384a11.452,11.452,0,0,1,10.474,8.384c1.155,4.63-1.663,8.384-6.294,8.384A11.453,11.453,0,0,1,564.547,797.3Z"/><path class="cls-21" d="M594.544,797.3c-1.154-4.63,1.663-8.384,6.294-8.384a11.452,11.452,0,0,1,10.474,8.384c1.155,4.63-1.663,8.384-6.294,8.384A11.453,11.453,0,0,1,594.544,797.3Z"/><path class="cls-22" d="M1262.448,377.083c39.176-46,99.589-138.4,140.261-185.715A15,15,0,0,0,1391.28,166.6h-74.012L1387.079,8.743c2.981-6.739-6.2-12.11-10.616-6.206l-168.8,225.924a9.342,9.342,0,0,0,8.626,14.862l83.789-10.318L1250.23,369.94C1247.486,377.478,1257.246,383.189,1262.448,377.083Z"/><path class="cls-4" d="M913.992,657.249c8.814-45.205,14.378-129.172,23.691-175.813a11.436,11.436,0,0,0-16.856-12.175L871.67,496.945,858.991,365.986c-.542-5.591-8.65-5.723-9.372-.151L822.013,579.029a7.121,7.121,0,0,0,11.288,6.645l51.792-38.195,18.111,109.6C904.2,663.108,912.821,663.25,913.992,657.249Z"/><path class="cls-23" d="M1650.993,1346.831,808.76,1417.79c-63.95,5.388-110.231-59.809-84.05-118.4l356.825-798.571c27.07-60.584,110.279-67.595,147.1-12.394l485.408,727.612C1749.662,1269.422,1714.943,1341.442,1650.993,1346.831Z"/><path class="cls-22" d="M1653.676,1378.687l-842.231,70.96a116.277,116.277,0,0,1-115.924-163.3l356.824-798.572c17.534-39.24,53.571-64.823,96.4-68.431s82.637,15.584,106.489,51.337l485.407,727.614a116.274,116.274,0,0,1-86.965,180.394Zm-499.563-895.63a51.671,51.671,0,0,0-43.389,30.8L753.9,1312.431a52.333,52.333,0,0,0,52.177,73.5l842.231-70.959a52.335,52.335,0,0,0,39.144-81.195L1202.043,506.164A51.672,51.672,0,0,0,1154.113,483.057Z"/><path class="cls-22" d="M1134.378,1224.656a77.041,77.041,0,0,1,3.278-30.587,70.593,70.593,0,0,1,14.413-25.313,75.687,75.687,0,0,1,24.2-17.94q14.427-6.921,33.137-8.507a96.542,96.542,0,0,1,34.344,2.822,75.239,75.239,0,0,1,27.112,13.617,70.679,70.679,0,0,1,18.443,22.545,77.175,77.175,0,0,1,8.35,29.607,75.362,75.362,0,0,1-3.3,30.34,71.126,71.126,0,0,1-14.432,25.066,75.008,75.008,0,0,1-24.451,17.961,96.506,96.506,0,0,1-33.389,8.529q-18.707,1.575-34.092-2.843a75.459,75.459,0,0,1-26.858-13.639,71.045,71.045,0,0,1-18.424-22.3A75.209,75.209,0,0,1,1134.378,1224.656ZM1264.59,1072.29l-121.316,10.221-52.111-413.074,155.691-13.117Z"/><path class="cls-6" d="M611.385,1097.62s2.641-5.94,4.351-8.752,9.017-11.053,10.26-9.187,6.219,14.423,3.576,17.939.172,9.634-12.973,13.337Z"/><path class="cls-15" d="M465.311,1060.117s67.288,56.168,93.525,50.968c20.515-4.066,52.951-14.355,52.951-14.355s8.56,8.143,6.138,17.9c0,0-41.322,38.881-70.763,39.132-46.017.394-67.721-22.8-67.721-22.8Z"/><path class="cls-24" d="M347.3,1652.562s1.953,31.51,8.049,31.961c.811.061,30.92.061,30.92.061l38.435-.223s-.252-9.261-11.486-11.219-30.04-9.853-36.846-24.7C369.217,1632.818,347.3,1652.562,347.3,1652.562Z"/><path class="cls-9" d="M345.088,1654.75s11.684,3.908,20.806,3.908a76.413,76.413,0,0,0,19.424-2.771s2.2-21.273,14.305-68.144c6.347-24.567,15.41-56.155,28.3-95.406,35.651-108.48,46.492-171.94,47.482-177.95.052-.315.073-.473.073-.473l-.115-.053-109.606-48.124s13.547,149.509-3.736,206.9a241.564,241.564,0,0,0-6.274,27.493C344.836,1562.46,345.088,1654.75,345.088,1654.75Z"/><path class="cls-10" d="M399.623,1587.743c6.347-24.567,15.41-56.155,28.3-95.406,35.651-108.48,46.492-171.94,47.482-177.95-.011-.178-.021-.347-.042-.526l-109.606-48.124s13.547,149.509-3.736,206.9C359.6,1480.653,399.623,1587.743,399.623,1587.743Z"/><path class="cls-25" d="M432.911,1652.562s1.954,31.51,8.05,31.961c.811.061,30.919.061,30.919.061l38.435-.223s-.252-9.261-11.486-11.219-30.04-9.853-36.845-24.7C454.824,1632.818,432.911,1652.562,432.911,1652.562Z"/><path class="cls-9" d="M495.053,1269.261s1.424,96.882-15.339,215.837-11.08,169.45-11.08,169.45-11.516,3.732-16.165,4.11c-11.841.965-23.982-2.775-23.982-2.775s-23.993-119-17.114-178.539-32.855-204.308-32.855-204.308Z"/><path class="cls-6" d="M417.334,1042.541l21.395,14.029,19.489-5.512c3.562-5.081,4.5-14.878,4.557-23.364a145.043,145.043,0,0,0-.765-15.559l-28.865-12.741-10.771-4.746c.032.168.838,8.843.954,10.112C425.339,1027.254,417.334,1042.541,417.334,1042.541Z"/><path class="cls-14" d="M495.544,1296.194c-26.63,25.712-127.414,21.388-133.625-6.941s6.774-241.154,52.264-254.523c9.439-2.774,59.905,13.537,59.905,13.537a320.028,320.028,0,0,1,13.113,47.09c1.007,5.134,3.949,59.52,6.151,110.4,1.027,23.8,1.9,46.833,2.34,63.7C496.1,1285.254,496.117,1295.632,495.544,1296.194Z"/><path class="cls-26" d="M425.486,1005.157c5.857,9.9,26.4,18.566,37.289,22.537a145.043,145.043,0,0,0-.765-15.559l-28.865-12.741C426.765,999.31,422.877,1000.736,425.486,1005.157Z"/><path class="cls-6" d="M472.9,1010.377s-46.509,14.509-55.1-14.594-20.377-46.831,8.955-57.324,38.405-1.1,43.635,7.917S484.775,1005.853,472.9,1010.377Z"/><path class="cls-27" d="M468.563,943.572s-2.966,33.866-9.969,32.4-14.714-4.616-13.688,5.593-6.81,27.709-16.91,27.667c-21.659-.09-45.193-55.669-39.263-66.208C405.841,912.612,493.291,906.474,468.563,943.572Z"/><path class="cls-15" d="M461.721,1035.465c-.6-.252-34.623-15.515-38.6-14.2s-8.938,13.467-8.938,13.467l59.909,13.544S469.374,1038.687,461.721,1035.465Z"/><path class="cls-28" d="M673.538,1200.288,482.817,1379.854c-3.738,3.52-8.452,4.641-10.476,2.492l-6.438-6.837c-2.023-2.15-.62-6.788,3.118-10.307l190.722-179.567c3.738-3.52,8.453-4.641,10.476-2.493l6.438,6.838C678.68,1192.13,677.277,1196.767,673.538,1200.288Z"/><path class="cls-7" d="M566.51,1301.056l-83.693,78.8c-3.738,3.52-8.452,4.641-10.476,2.492l-6.438-6.837c-2.023-2.15-.62-6.788,3.118-10.307l83.693-78.8Z"/><path class="cls-28" d="M629.7,1132.49A149.489,149.489,0,1,0,877.473,982.263q-1.149-1.146-2.348-2.262A149.495,149.495,0,0,0,629.7,1132.49Zm42.727-137.968a137.693,137.693,0,1,1,5.93,194.63A137.527,137.527,0,0,1,672.429,994.522Z"/><g class="cls-29"><path class="cls-30" d="M872.981,1183.211a137.694,137.694,0,1,1-5.935-194.621A137.132,137.132,0,0,1,872.981,1183.211Z"/></g><path class="cls-15" d="M495.692,1269.456c-105.089-74.885-96.35-174.81-96.35-174.81,38.409,21.663,76.524,69.563,94.01,111.112C494.379,1229.554,495.248,1252.591,495.692,1269.456Z"/><path class="cls-6" d="M599.412,1235.353c7.411-1.71,12.388-7.312,13.422-8.291,0,0,3.161.216-.518,6.957-.308.565-.991,2.013-1.507,3.037a.655.655,0,0,0,.55.942c4.277.325,8.575-1.367,16.814.35,1.137.238,1.468,2.96,1.424,4.121a10.516,10.516,0,0,1-2.215,7.177c-1.326,1.75-5.031,3.635-13.279,6.954-3.142,1.265-12.126.311-20.546-2.581l-6.728-3.115,2.086-12.5,1.69.355C593.289,1239.317,596.614,1236.04,599.412,1235.353Z"/><path class="cls-14" d="M431.956,1048.274s-94.425,17.98,27.781,154.718c19.544,21.869,125.139,50.344,125.139,50.344s10.71-9.112,5.311-16.491c0,0-72.705-52.8-88.7-61.19-7.2-3.776-27.93-84.268-39.661-103.653S431.956,1048.274,431.956,1048.274Z"/><path class="cls-6" d="M613.945,1099.278s3.089-5.9,3.692-9.016,4.491-12.194,6.093-13.792c.642-.641,2.756.188,3.006,2.939.109,1.2-.479,3.376-1.517,5.973-1.689,4.225-1.411,9.956-2,11.867C621.759,1102.007,613.945,1099.278,613.945,1099.278Z"/><path class="cls-6" d="M651.523,865a5.694,5.694,0,0,0-1.018,6.091.056.056,0,0,0,.016.03c1.468,4.06,6.321,8.6,11.958,13.127.721.582,1.361,1.111,1.919,1.6.147.129.294.258.431.387.114.1.223.2.332.3,5.257,4.85,3.277,5.959,12.721,15.8,10.768,11.211,18.184,11.415,20.294,10.394,1.785-.869-1.839-6.814-5.855-13.5-.2-.321-.386-.648-.585-.974-.535-.888-1.067-1.79-1.6-2.683-4.706-8.043-3.5-11.814-2.375-23.781.91-9.724,15.146-54.32,15.146-54.32l-20.641-3.563s-6.229,35.514-13.08,40.98c-3.664,2.914-7.763,2.95-11.284,5.11q-.374.225-.733.463A27.09,27.09,0,0,0,651.523,865Z"/><path class="cls-10" d="M651.523,865a5.694,5.694,0,0,0-1.018,6.091.056.056,0,0,0,.016.03c1.8,4.058,6.529,8.57,11.978,13.086.712.592,1.34,1.135,1.9,1.642.147.129.294.258.431.387.114.1.223.2.332.3,5.257,4.85,3.277,5.959,12.721,15.8,10.768,11.211,18.184,11.415,20.294,10.394,1.785-.869-1.839-6.814-5.855-13.5a45.885,45.885,0,0,1-19.2-14.155c-6.247-7.978-10.487-18.145-14.738-24.387l-1.213-.227A27.132,27.132,0,0,0,651.523,865Z"/><path class="cls-6" d="M817.976,852.165c1.272,6.372,10.355,5.312,20.5,2.836s7.736.47,22.179-1.123,18.818-6.977,19.26-9.124c.395-1.906-6.741-2.58-14.395-3.465-.962-.108-1.929-.227-2.9-.347-8.641-1.087-14.968-6.666-22.816-11.248-7.434-4.341-18.524-22.018-18.524-22.018l-19.806,1.562s10.388,15.789,14.4,22.654c2.363,4.037,2.236,9.375,1.94,13.5A25.433,25.433,0,0,0,817.976,852.165Z"/><path class="cls-10" d="M838.479,855c10.149-2.476,7.736.47,22.179-1.123s18.818-6.977,19.26-9.124c.395-1.906-6.741-2.58-14.395-3.465l-.071.148a40.713,40.713,0,0,1-20.685,6.421c-9.8.236-20.175-2.575-26.941-2.469a25.433,25.433,0,0,0,.15,6.776C819.248,858.537,828.331,857.477,838.479,855Z"/><path class="cls-10" d="M742.119,725.5,723.586,775.31l-24.194,65.044a39.158,39.158,0,0,1-12.841-1.178c-5.783-1.674-12.417-6.049-12.417-6.049s6.736-69.845,19.271-109.936c3.212-10.291,6.811-18.614,10.781-23.3C723.6,676.96,742.119,725.5,742.119,725.5Z"/><path class="cls-9" d="M723.322,646.367c-10.538-3.4-38.038-.066-67.867,5.322a20.232,20.232,0,0,1-20.886-9.44h0l-75.062-5.888s-24.789,54.921-11.24,89.926c1.991,5.145,6.364,8.357,13.115,8.468h0s45.36.078,59.866.083c37.331.013,79.013-25.633,84.4-26.71,8.824-1.762,12.347,15.887,21.165,34.421s82.917,82.091,82.917,82.091,11.391.117,16.1-1.646c5.062-1.9,6.914-4.361,6.914-4.361S750.673,655.2,723.322,646.367Z"/><path class="cls-10" d="M626.67,421.82a26.631,26.631,0,0,0-14.337-3.736,39.8,39.8,0,0,1-6.923-.422c-28.647-4.211-45.914,37.4-46.929,49.97-1.864,23.083-14.077,26.6-31.271,41.05-34.475,28.976-24.38,62.664-5.539,75.186,11.3,7.514,31.239.01,31.239.01.282.2,54.519-30.3,81.253-45C674.238,533.192,642.766,431.409,626.67,421.82Z"/><path class="cls-6" d="M611.764,526.339c.117.076-13.154,4.6-22.025.67-8.346-3.692-14.664-17.428-14.54-17.435,3.8-.174,7.966-3.492,11.184-25.273l1.617.58,27.183,9.792s-1.974,8.722-3.25,17.027C610.858,518.673,610.279,525.352,611.764,526.339Z"/><path class="cls-31" d="M615.183,494.673s-1.087,4.706-2.673,13.5C596.9,505.355,590.2,493.324,588,484.881Z"/><path class="cls-6" d="M619.228,503.332s-37.193-5-33.72-28.119,1.012-39.327,24.906-37.109,27.172,11.73,27.889,19.727S628.993,504.038,619.228,503.332Z"/><path class="cls-10" d="M636.952,445.16s-23.817,20.511-40.014,22.16-22.326-3.553-22.326-3.553a63.237,63.237,0,0,0,15.3-20.71,11.392,11.392,0,0,1,9.391-6.712C610.866,435.351,632.789,434.9,636.952,445.16Z"/><path class="cls-10" d="M622.069,443.317s7.963,7.7,10.469,13.418c2.419,5.514,3.141,18.7,1.211,23.934,0,0,12.419-24.127,5.4-35.855C631.7,432.379,622.069,443.317,622.069,443.317Z"/><path class="cls-14" d="M643.065,581.142c-1.151,75.291-.329,59.558-8.568,66.7-1.985,1.719-7.564,2.743-14.907,3.225-23.088,1.525-63.671-2.293-65.213-6.56-5.319-14.765-1.559-19.35-5.994-41.953-.462-2.4-1.034-5.006-1.706-7.84-3.7-15.525-7.3-20.807,5.848-45.743,11.926-22.586,24.314-40.917,25.427-40.255,31.438,18.677,33.98,2.988,33.98,2.988S643.629,544.417,643.065,581.142Z"/><path class="cls-9" d="M723.586,775.31l-24.194,65.044a39.158,39.158,0,0,1-12.841-1.178c-5.783-1.674-12.417-6.049-12.417-6.049s6.736-69.845,19.271-109.936Z"/><path class="cls-14" d="M611.933,511.7s32.353,5.5,36.147,19.429,16.273,98.491,16.273,98.491-9.127,8.907-16.723,1.306S623.744,551.8,623.744,551.8Z"/><path class="cls-15" d="M619.59,651.067c-23.088,1.525-63.671-2.293-65.213-6.56-5.319-14.765-1.559-19.35-5.994-41.953L559.53,571.2s-1.854,34.917,8.441,44.1,42.154,17.744,47.157,25.419A28.1,28.1,0,0,1,619.59,651.067Z"/><path class="cls-6" d="M593.143,636.372s22.779-5.063,26.453-3.041,12.654,9.388,13.778,11.949-8.182-1.947-11.209-2.76c-1.96-.526-7.121,1.265-9.675,2.116-10.751,3.579-17.338,1.734-17.338,1.734Z"/><path class="cls-14" d="M577.933,508.7s-30.583,1.874-41.176,16.637c-14.91,20.78-44.506,109.357-27.566,121.178,19.077,13.312,86.843,3.511,86.843,3.511s2.258-10.54-.877-15.639-54.119-13.353-56.471-15.707,29.43-45.877,29.433-52.937S577.933,508.7,577.933,508.7Z"/><path class="cls-6" d="M620.7,639.671s4.77,6.158,6.334,6.893a4.661,4.661,0,0,0,2.575.552l-3.214-5.789Z"/><path class="cls-6" d="M619.6,633.331l13.873,6.743a2.471,2.471,0,0,1-2.3.887,33.04,33.04,0,0,1-6.017-1.656Z"/><polygon class="cls-10" points="738.075 649.212 593.139 649.162 593.138 652.361 736.787 652.411 738.075 649.212"/><polygon class="cls-10" points="627.029 652.373 736.787 652.411 769.833 570.317 660.244 570.28 627.029 652.373"/><path class="cls-32" d="M709.1,611.348c.828-2.885-.84-5.226-3.725-5.227a7.489,7.489,0,0,0-6.727,5.224c-.829,2.886.84,5.226,3.726,5.227A7.488,7.488,0,0,0,709.1,611.348Z"/><path class="cls-27" d="M1451.91,961.993c-14.788-4.91-25.023,1.287-25.023,1.287-42.572,1.749-44.154,45.386-39.155,61.626,7.018,22.808-17.818,40.793,9.726,50.023,31.96,10.71,58.778-2,56.948,3.52C1555.475,1086.413,1485.537,973.16,1451.91,961.993Z"/><path class="cls-14" d="M1407.753,1174.232a111.6,111.6,0,0,1-11.382,17.214c-8.843,11.076-55.26-15.215-51.261-17.214s27.323-69.195,32.875-77.639,24.484-12.829,24.484-12.829Z"/><path class="cls-33" d="M1564.393,1627.439s12.811,11.692,10.311,20-14.061,13.846-15.624,24-7.811,15.692-13.435,15.692h-26.816s-4.139-7.146,5.86-9.3,13.768-14.085,13.143-25.161.938-25.845.938-25.845l21.248-4.923Z"/><path class="cls-8" d="M1455.958,1632.4s4.61,49.529-1.014,52.3l-71.981-.148s0-8.307,11.561-10.153,31.872-8.615,35.309-23.691S1455.958,1632.4,1455.958,1632.4Z"/><path class="cls-14" d="M1511.329,1140.824a286.333,286.333,0,0,1,0,33.27c-.712,12.029-12.88,28.141-14.607,32.126-4.332,10-9.217,11.624-9.217,11.624l-37.793,9.262-13.289,3.253-41.9-12.515s-19.086-53.275-11.423-83.264,19.374-50.816,19.374-50.816,28.478-6.4,78.719-2.838Z"/><path class="cls-15" d="M1514.929,1174.514c-.713,12.03-16.48,27.721-18.207,31.706-4.332,10-9.217,11.624-9.217,11.624l-37.793,9.262-6.824-19.557s55.222-14.506,46.339-65.616Z"/><path class="cls-10" d="M1397.184,1225.929s-20.753,64.595-22.086,86.587,39.67,312.419,41.319,322.553c1.555,9.552,13.416,15.641,13.416,15.641a17.948,17.948,0,0,0,13.242,1.019c10.8-3.05,14.216-6.7,14.216-6.7s16.153-207.131,6.158-281.121a1172.065,1172.065,0,0,1-10.115-137.977Z"/><path class="cls-9" d="M1485.107,1224s31.656,42.473,34.607,71.185,4.63,129.565,10.917,157.555,29.387,81.855,29.387,169.157c0,0-2.4,5-9.814,7.669a80.725,80.725,0,0,1-8.632,2.387,13.569,13.569,0,0,1-15.178-7.2c-15.617-31.445-65.364-132.86-67.915-153.911-1.805-14.9-17.512-113.5-51.775-171.355-8.226-13.891,5.048-69.128,5.048-69.128Z"/><path class="cls-10" d="M1393.869,1215.958s8.331,6.591,24.88,6.924c19.769.4,68.754-5.04,68.754-5.04a40.5,40.5,0,0,1,2.088,12.5s-59.827,15.09-94.491,2.2C1395.1,1232.548,1390.629,1224.136,1393.869,1215.958Z"/><path class="cls-32" d="M1414.007,1239.917c-4.973,0-9.02-4.579-9.02-10.209s4.047-10.21,9.02-10.21,9.021,4.58,9.021,10.21S1418.981,1239.917,1414.007,1239.917Zm0-17.429c-3.325,0-6.031,3.238-6.031,7.22s2.706,7.22,6.031,7.22,6.03-3.239,6.03-7.22S1417.332,1222.488,1414.007,1222.488Z"/><polygon class="cls-34" points="1457.228 1258.488 1367.309 1259.33 1323.061 1155.344 1412.981 1154.504 1457.228 1258.488"/><path class="cls-6" d="M1445.468,1211.5l-6.591-8.1s-4.461-3.978-7.7-4.654-10.071-4.618-10.734-3.508,5.252,9.034,5.252,9.034l.3.043c-6.789,5.106-23.928.6-26.043,2.682-2.565,2.524,3.529,7.982,6.8,11.047s12.619,8.174,19.909,5.9c5.328-1.659,13.713-3.347,13.713-3.347Z"/><path class="cls-6" d="M1329.825,1173.637s5.651-6.422,9.248-3.34-.943,18.237-4.368,16.7S1327.856,1175.519,1329.825,1173.637Z"/><path class="cls-14" d="M1481.188,1080.926s25.741,2.838,44.214,36.4c14.567,26.468,39.47,75.262,30.073,89.044-4.125,6.052-43.669,27.582-119.94,15.275,0,0,1.2-9.634,7.353-14.1,0,0,64.187-20.608,64.077-24.707-.208-7.755-8.674-14.455-44.528-50.321C1452.69,1122.77,1481.188,1080.926,1481.188,1080.926Z"/><path class="cls-6" d="M1461.377,1082.286c.884-1.188-.254-4.969-1.668-12.011-1.28-6.38-3.453-16.247-3.406-27.347l-1.9.318-31.9,5.367s.726,8.53.747,16.566c0,.067,0,.134,0,.2.039,6.978-1.882,17.525.471,18.9C1435.81,1091.367,1457.975,1086.853,1461.377,1082.286Z"/><path class="cls-35" d="M1422.5,1048.613s.635,12.028.657,20.064c17.852-.427,27.38-17.762,31.247-25.431Z"/><path class="cls-6" d="M1420.577,1062.959s41.822-5.957,37.711-31.946-1.48-44.259-28.357-41.554-30.483,13.439-31.222,22.447S1409.591,1063.838,1420.577,1062.959Z"/><path class="cls-27" d="M1410.831,991.848s16.278,28.664,34.523,30.38,25.1-4.193,25.1-4.193a50.26,50.26,0,0,1-20.9-26.737S1417.135,975.968,1410.831,991.848Z"/><path class="cls-27" d="M1414.056,993.872s-7.965,4.515-10.466,11.247a42.529,42.529,0,0,0-1.839,24.753s-11.9-19.349-4.1-32.61C1405.922,983.2,1414.056,993.872,1414.056,993.872Z"/><path class="cls-10" d="M17.151,1683.394H2335.5a2.9,2.9,0,0,1,2.9,2.9v1.671a2.9,2.9,0,0,1-2.9,2.9H17.151a2.9,2.9,0,0,1-2.9-2.9v-1.673a2.9,2.9,0,0,1,2.9-2.9Z"/></g></g></svg>