<svg xmlns="http://www.w3.org/2000/svg" viewBox="0 0 161.88 161.88"><defs><style>.cls-1{fill:#e2e2e2;}.cls-2{fill:#a4def6;}.cls-3{fill:#46c6e6;}.cls-4{fill:#6fcff3;}.cls-5{fill:#5c79bc;}.cls-6{fill:#4f69a3;}</style></defs><title>Asset 3</title><g id="Layer_2" data-name="Layer 2"><g id="Capa_1" data-name="Capa 1"><path class="cls-1" d="M161.88,80.94a80.909,80.909,0,0,1-130.9,63.68l-.01-.01c-1.54-1.21-3.05-2.48-4.5-3.81A80.937,80.937,0,1,1,161.88,80.94Z"/><path class="cls-2" d="M34.862,127.468a25.031,25.031,0,0,1,13.208-10.1L67.411,110.2H85.874l19.335,7.167a25.039,25.039,0,0,1,13.209,10.1Z"/><path class="cls-3" d="M130.44,144.97a80.631,80.631,0,0,1-29.58,14.44c-1.19-7.55-1.74-14.19-1.37-19.39a50.721,50.721,0,0,1-2.55-12.55c-.24-5.42,1.1-10.54,7.06-10.55h.01a14.176,14.176,0,0,1,3.37.45.1.1,0,0,1,.04.01C108.38,117.6,125.89,121.98,130.44,144.97Z"/><rect class="cls-2" x="63.969" y="92.067" width="25.347" height="24.713"/><path class="cls-4" d="M89.316,103.553V92.067H63.969v5.689C71.2,103.773,79.908,104.537,89.316,103.553Z"/><path class="cls-3" d="M116.61,153.61a80.175,80.175,0,0,1-15.75,5.8,80.836,80.836,0,0,1-69.88-14.79l-.01-.01-3.73-6.87a24.8,24.8,0,0,1,12.91-18.08.052.052,0,0,1,.04-.02,25.218,25.218,0,0,1,5.43-2.27l18.26-5.86.09-.03c.7,2.73,3.2,4.34,5.79,5.3a25.3,25.3,0,0,0,6.75,1.35c4.81,0,7.9-.56,9.87-1.35a5.347,5.347,0,0,0,2.94-2.29,3.281,3.281,0,0,0,0-2.99.031.031,0,0,1-.01-.02h.01l.09.03,17.97,5.86a.1.1,0,0,1,.04.01c.39.44.77.89,1.14,1.34a33.065,33.065,0,0,1,5.08,8.75,47.015,47.015,0,0,1,2.88,16.1C116.59,146.41,116.68,148.9,116.61,153.61Z"/><path class="cls-5" d="M106.817,55.253c0-5.873-.25-11.735-.112-17.6.09-3.75.435-2.784-3.909-3.194-6.019-.573-8.032,10.609-8.454,15.447-.582,6.67.862,13.85,1.972,20.351.4,2.348.291,7.055,2.75,8.156,2.1.941,4.3-1.381,5.4-3.1,2.539-3.953,2.09-10,2.258-14.484C106.792,58.968,106.817,57.11,106.817,55.253Z"/><path class="cls-2" d="M104.212,88.627c-2.562,10.024-7.074,12.787-7.074,12.787l-6.051,1.18c-3.482-.441-9.488-1.86-9.488-1.86-13.822-4.7-17.828-5.967-19.971-11.221-.09-.223-10.9-37.731-10.9-37.731-1.767-19.306,18.44-23.323,21.491-23.827,3.018-.7,22.259-6.043,27.943,12.49A100.668,100.668,0,0,1,104.212,88.627Z"/><path class="cls-6" d="M48.657,34.061c-6.715,3.236-6.945,9.231-6.631,16.047.244,5.285,1.877,9.793,3.767,14.919,3.223,8.745,3.223,8.745,6.081,13.772A58.547,58.547,0,0,0,62.058,90.462C60.4,83.883,59.932,78.969,58.42,73.916A31.85,31.85,0,0,1,59.834,53.5s1.53-4.145,7.813-5.328h0L48.657,34.061Z"/><path class="cls-2" d="M59.692,72.613s-3.417-7.444-8.787-3.034c0,0-2.445,1.908.566,6.89,0,0,4.374,7.162,9.614,3.193Z"/><path class="cls-6" d="M59.157,55.253s.022,13.327,2.471,20.395l-2.6.515s-1.366-9.14-6.071-9.248Z"/><path class="cls-5" d="M110.139,26.711c21.6,22-43.768,21.777-43.768,21.777s-6.857,3.17-17.714-14.427c0,0-2.928-13.764,27.983-18.1C76.64,15.964,97.072,13.458,110.139,26.711Z"/><path class="cls-3" d="M53.96,157.27a80.684,80.684,0,0,1-22.98-12.65l-.01-.01c-1.54-1.21-3.05-2.48-4.5-3.81.11-.77.24-1.54.38-2.31,1.52-8.31,5.32-15.77,13.3-18.83a.052.052,0,0,1,.04-.02,20.545,20.545,0,0,1,2.62-.81,8.144,8.144,0,0,1,2.17-.23c3.59.08,6.72,2.49,8.75,5.58a8.305,8.305,0,0,1,1.07,3.29C55.56,131.47,56.12,139.97,53.96,157.27Z"/></g></g></svg>