<svg xmlns="http://www.w3.org/2000/svg" viewBox="0 0 162.79 162.79"><defs><style>.cls-1{fill:#e2e2e2;}.cls-2{fill:#5c79bc;}.cls-3{fill:#a4def6;}.cls-4{fill:#46c6e6;}.cls-5{fill:#6fcff3;}.cls-6{fill:none;}</style></defs><title>Asset 2</title><g id="Layer_2" data-name="Layer 2"><g id="Capa_1" data-name="Capa 1"><path class="cls-1" d="M162.79,81.39a81.512,81.512,0,0,1-45.32,72.98,80.069,80.069,0,0,1-15.19,5.71,81.706,81.706,0,0,1-47.84-1.87,81.767,81.767,0,0,1-27.52-16.34A81.394,81.394,0,1,1,162.79,81.39Z"/><path class="cls-2" d="M39.147,37.019s2.478-2.274,7.2,1.841l2.2-3.414S43.239,31.252,39.147,37.019Z"/><path class="cls-2" d="M47.8,27.051s-2.931,3.641,1.289,7.788l-2.847,2.875S39.71,29.714,47.8,27.051Z"/><path class="cls-3" d="M35.772,125.152a25.031,25.031,0,0,1,13.208-10.1l19.341-7.168H86.784l19.335,7.168a25.039,25.039,0,0,1,13.209,10.1Z"/><path class="cls-4" d="M131.8,145.3a81.2,81.2,0,0,1-29.52,14.78c-1.54-8.78-2.3-16.5-1.88-22.38a50.85,50.85,0,0,1-2.55-12.55c-.24-5.42,1.11-10.54,7.06-10.55h.01a14.71,14.71,0,0,1,3.37.45.1.1,0,0,0,.04.01C109.33,115.29,128.13,120,131.8,145.3Z"/><rect class="cls-3" x="64.879" y="89.75" width="25.347" height="24.713"/><path class="cls-5" d="M90.226,101.237V89.75H64.879v5.69C72.109,101.457,80.818,102.22,90.226,101.237Z"/><path class="cls-2" d="M117.47,154.37a80.069,80.069,0,0,1-15.19,5.71,81.706,81.706,0,0,1-47.84-1.87,80.044,80.044,0,0,1-19.22-9.79l-7.07-13a24.814,24.814,0,0,1,13-18.13,24.247,24.247,0,0,1,5.38-2.24l18.23-5.85.03-.01.09-.03c.7,2.73,3.2,4.34,5.79,5.3a25.3,25.3,0,0,0,6.75,1.35c4.81,0,7.9-.56,9.87-1.35a5.347,5.347,0,0,0,2.94-2.29,3.281,3.281,0,0,0,0-2.99.031.031,0,0,1-.01-.02h.01l.09.03,17.97,5.86a.1.1,0,0,0,.04.01c.39.44.77.89,1.14,1.34l.01.01a33.69,33.69,0,0,1,5.07,8.74,47.072,47.072,0,0,1,2.88,16.11C117.52,144.65,117.63,147.56,117.47,154.37Z"/><path class="cls-2" d="M109.925,58.861c.721-5.684-.489-11.128-.43-16.73.041-3.759-.694-9.432-5.368-9.908-6.476-.662-8.475,10.522-8.857,15.368-.527,6.681,1.13,13.9,2.418,20.439.464,2.361.416,7.079,3.074,8.22,2.273.974,4.6-1.322,5.759-3.029C109.322,69.1,109.327,63.619,109.925,58.861Z"/><path class="cls-3" d="M105.122,86.311C102.56,96.335,98.048,99.1,98.048,99.1L92,100.278c-3.482-.441-9.488-1.86-9.488-1.86C68.687,93.719,64.681,92.45,62.538,87.2c-.09-.222-10.9-37.731-10.9-37.731C49.875,30.16,70.082,26.143,73.133,25.639c3.018-.7,22.259-6.044,27.943,12.49A100.668,100.668,0,0,1,105.122,86.311Z"/><path class="cls-2" d="M111.476,19.448c1.095,5.994.07,14.29-4.574,18.117-5.043,4.153-9.371,3.024-15.441,4.372-6.309,1.4-12.765,1.957-19.106,3.184-4.441.86-9.567,1.352-11.611,6.063A31.847,31.847,0,0,0,59.33,71.6c1.512,5.053,1.977,9.968,3.638,16.546A58.556,58.556,0,0,1,52.784,76.483c-2.858-5.028-2.858-5.028-6.081-13.772-1.89-5.126-3.523-9.634-3.767-14.919-.314-6.817,2.992-9.788,6.631-16.047A24.638,24.638,0,0,1,64.042,19.921S95.766,21.7,95.169,14.457c0,0,7.619,1.945,6.169,7.011,0,0,7.971-1.455,6.28-7.011A7.438,7.438,0,0,1,111.476,19.448Z"/><path class="cls-3" d="M60.6,70.3s-3.417-7.445-8.787-3.034c0,0-2.445,1.908.566,6.89,0,0,4.374,7.162,9.614,3.193Z"/><path class="cls-2" d="M60.067,52.936s.022,13.327,2.471,20.4l-2.6.515s-1.366-9.14-6.071-9.248Z"/><path class="cls-4" d="M54.44,158.21a81.767,81.767,0,0,1-27.52-16.34q.33-2.865.84-5.7c1.53-8.34,5.34-15.82,13.39-18.88a21.434,21.434,0,0,1,2.57-.78,8.071,8.071,0,0,1,2.16-.23h.01c3.59.08,6.72,2.49,8.75,5.58a8.305,8.305,0,0,1,1.07,3.29C56.52,129.4,57.09,138.7,54.44,158.21Z"/><path class="cls-6" d="M162.79,81.39a81.512,81.512,0,0,1-45.32,72.98,80.069,80.069,0,0,1-15.19,5.71,81.706,81.706,0,0,1-47.84-1.87,81.767,81.767,0,0,1-27.52-16.34A81.394,81.394,0,1,1,162.79,81.39Z"/></g></g></svg>