<svg id="Layer_1" enable-background="new 0 0 512 512" height="512" viewBox="0 0 512 512" width="512" xmlns="http://www.w3.org/2000/svg"><g><path d="m194.438 343.83h-59.185v-121.972l59.185-23.974z" fill="#5c5454"/><path d="m0 339.709v137.563c0 4.691 3.803 8.495 8.495 8.495h31.731c9.742 0 19.399 1.818 28.475 5.359l20.178 7.874c9.076 3.542 18.733 5.359 28.475 5.359h102.815c17.224 0 31.186-13.962 31.186-31.186v-107.286c0-17.224-13.962-31.186-31.186-31.186h-68.61c-9.014 0-16.322-7.308-16.322-16.322v-34.808h-10.219c-20.15 0-39.324 8.68-52.619 23.822-13.295 15.142-32.469 23.822-52.619 23.822h-11.285c-4.692 0-8.495 3.803-8.495 8.494z" fill="#ffa64d"/><path d="m135.236 221.858c136.319-47.847 188.526 18.906 267.76 18.906 58.304 0 89.825-11.833 102.409-18.085 4.052-2.013 6.595-6.163 6.595-10.687v-170.91c0-8.403-8.424-14.149-16.273-11.148-16.336 6.245-45.89 13.883-92.731 13.883-77.608 0-129.288-64.042-259.474-21.709-4.933 1.604-8.286 6.195-8.286 11.383z" fill="#f1f1fb"/><path d="m495.727 29.934c-16.336 6.245-45.89 13.883-92.731 13.883-28.21 0-52.996-8.462-79.37-17.201v196.947c26.374 8.739 51.16 17.201 79.37 17.201 58.304 0 89.825-11.833 102.409-18.085 4.052-2.013 6.595-6.162 6.595-10.687v-170.91c0-8.404-8.424-14.149-16.273-11.148z" fill="#e0d6fc"/></g></svg>